<svg width="181" height="92" viewBox="0 0 181 92" fill="none" xmlns="http://www.w3.org/2000/svg">
<mask id="mask0_108_249" style="mask-type:luminance" maskUnits="userSpaceOnUse" x="142" y="63" width="39" height="29">
<path d="M142.549 63.5763H180.267V91.7625H142.549V63.5763Z" fill="white"/>
</mask>
<g mask="url(#mask0_108_249)">
<path d="M154.823 63.6066V85.5397L143.05 91.7559H179.998L172.311 77.6834L179.998 63.6066H154.823Z" fill="white"/>
</g>
<path d="M139.596 85.7782V90.8417L149.192 85.7782H139.596Z" fill="white"/>
<mask id="mask1_108_249" style="mask-type:luminance" maskUnits="userSpaceOnUse" x="27" y="55" width="126" height="29">
<path d="M27.1786 55.1545H152.533V83.5444H27.1786V55.1545Z" fill="white"/>
</mask>
<g mask="url(#mask1_108_249)">
<path d="M152.397 55.1654H27.6271V83.3581H152.397V55.1654Z" fill="white"/>
</g>
<mask id="mask2_108_249" style="mask-type:luminance" maskUnits="userSpaceOnUse" x="0" y="63" width="38" height="29">
<path d="M0 63.5763H37.7173V91.7625H0V63.5763Z" fill="white"/>
</mask>
<g mask="url(#mask2_108_249)">
<path d="M25.2026 85.7781V63.6066L0.396484 63.6131L8.08382 77.6834L0.402984 91.7624L37.336 91.7516L25.2026 85.7781Z" fill="white"/>
</g>
<path d="M40.8287 90.8395L40.8655 85.7782H31.083L40.8287 90.8395Z" fill="white"/>
<path d="M43.128 76.3545C42.5669 76.3545 42.2137 76.0945 42.0707 75.5745C42.0534 75.5182 42.0447 75.4358 42.0447 75.3318C42.0447 74.8357 42.023 74.2463 41.984 73.5638C41.9429 72.8835 41.9017 72.1728 41.8627 71.4318C41.8215 70.5652 41.7869 69.7072 41.7587 68.8578C41.7284 68.0085 41.7154 67.2935 41.7154 66.7085V65.8938C41.7154 65.6577 41.6049 65.5602 41.386 65.5992C40.4847 65.6988 39.8824 65.7682 39.5834 65.8072C39.2822 65.8483 39.1002 65.8678 39.0374 65.8678C38.4935 65.8678 38.1317 65.6685 37.954 65.2698C37.8955 65.1658 37.8674 65.0662 37.8674 64.9665C37.8674 64.609 38.0667 64.3165 38.4654 64.0912C38.6257 64.0175 38.7969 63.9655 38.9767 63.9352C39.1544 63.9005 39.3255 63.8745 39.488 63.8572L42.1054 63.5798L43.4574 63.4065C43.6177 63.3848 43.9275 63.3372 44.3847 63.2678C44.8462 63.1985 45.3294 63.1357 45.832 63.0772C46.3347 63.0143 46.716 62.9732 46.976 62.9558C47.8362 62.893 48.2674 63.1812 48.2674 63.8225C48.2674 64.2862 47.9857 64.5657 47.4267 64.6632C46.8829 64.7455 46.339 64.8322 45.7974 64.9232C45.26 65.0098 44.7184 65.1052 44.1767 65.2092C43.9969 65.2265 43.908 65.3262 43.908 65.5038V66.9772C43.908 67.4625 43.921 68.0475 43.9514 68.7278C43.9795 69.4038 44.0142 70.1232 44.0554 70.8858C44.0944 71.6485 44.129 72.3765 44.1594 73.0698C44.194 73.7588 44.2114 74.3417 44.2114 74.8205C44.2114 74.8617 44.2135 74.8985 44.22 74.9332C44.2309 74.9635 44.2374 74.9982 44.2374 75.0372C44.2374 75.0545 44.2374 75.0697 44.2374 75.0805C44.2374 75.0935 44.2374 75.1065 44.2374 75.1238C44.2374 75.2062 44.2309 75.2798 44.22 75.3492C44.2135 75.4185 44.1984 75.5052 44.1767 75.6092C44.1182 76.1053 43.7694 76.3545 43.128 76.3545Z" fill="black"/>
<path d="M56.7133 76.2332C55.6083 76.2332 54.6463 75.9732 53.8273 75.4532C53.0061 74.9332 52.3648 74.2095 51.9033 73.2778C51.4396 72.3483 51.21 71.2715 51.21 70.0452C51.21 68.561 51.5328 67.2177 52.1806 66.0152C52.8328 64.8148 53.7016 63.9438 54.7893 63.4065C55.2443 63.1465 55.6993 63.0078 56.15 62.9905C56.605 62.9688 57.1553 62.9775 57.7966 63.0165C59.6556 63.0923 61.051 63.7575 61.9826 65.0098C62.9186 66.2643 63.274 67.9435 63.0486 70.0452C62.949 71.1502 62.6976 72.1577 62.2946 73.0698C61.896 73.9777 61.259 74.7143 60.388 75.2798C59.5213 75.8388 58.295 76.1573 56.7133 76.2332ZM56.8 74.3698C58.3015 74.3135 59.3523 73.8802 59.9546 73.0698C60.5548 72.2552 60.856 70.9768 60.856 69.2305C60.856 67.7918 60.5483 66.6977 59.9373 65.9458C59.3306 65.1962 58.4553 64.8192 57.3113 64.8192C56.4663 64.8192 55.76 65.0857 55.188 65.6165C54.6203 66.143 54.1913 66.8125 53.8966 67.6272C53.6063 68.4375 53.4633 69.2717 53.4633 70.1318C53.4633 71.4145 53.7515 72.4437 54.33 73.2172C54.9128 73.9863 55.7361 74.3698 56.8 74.3698Z" fill="black"/>
<path d="M69.5761 75.3665C68.6748 75.3665 68.1721 74.8768 68.0681 73.8932C68.0681 73.8542 68.0551 73.7242 68.0334 73.5032C68.0161 73.2843 67.9923 73.059 67.9641 72.8272C67.9338 72.5975 67.9208 72.4415 67.9208 72.3592L67.9468 70.2532C67.9468 69.7332 67.9251 69.2197 67.8861 68.7105C67.8514 68.197 67.8016 67.6922 67.7388 67.1938C67.6803 66.6348 67.6196 66.2102 67.5568 65.9198C67.4983 65.6252 67.4484 65.3738 67.4094 65.1658C67.3683 64.9535 67.3488 64.7065 67.3488 64.4292C67.3488 64.1865 67.4441 63.9958 67.6348 63.8572C67.8254 63.7142 68.0594 63.6405 68.3368 63.6405C68.5794 63.6232 68.8156 63.6102 69.0474 63.5972C69.2771 63.5863 69.5111 63.5798 69.7494 63.5798C70.5749 63.5798 71.3874 63.6405 72.1848 63.7618C72.9864 63.8832 73.7578 64.0868 74.4988 64.3685C75.4629 64.7498 76.2191 65.2872 76.7694 65.9805C77.3241 66.6695 77.6014 67.4842 77.6014 68.4245C77.6188 69.5057 77.3349 70.4763 76.7521 71.3365C76.1736 72.1988 75.3438 72.9485 74.2648 73.5898C73.6798 73.9322 73.0688 74.2377 72.4274 74.5085C71.7861 74.7815 71.1144 75.0263 70.4168 75.2452C70.2716 75.269 70.1308 75.295 69.9921 75.3232C69.8534 75.3535 69.7148 75.3665 69.5761 75.3665ZM70.0874 73.0525C70.1264 73.2735 70.2456 73.3537 70.4428 73.2952C70.9454 73.1522 71.4091 72.981 71.8381 72.7838C72.2714 72.5823 72.7069 72.3505 73.1468 72.0905C74.6721 71.1892 75.4348 69.9368 75.4348 68.3292C75.4348 67.3303 74.9429 66.6002 73.9614 66.1365C72.8564 65.5775 71.5261 65.3088 69.9661 65.3305C69.7451 65.3305 69.6563 65.441 69.6974 65.6598C69.8534 66.6435 69.9509 67.6445 69.9921 68.6672C70.0311 69.6855 70.0636 70.7038 70.0874 71.7265C70.0874 71.9475 70.0874 72.1685 70.0874 72.3938C70.0874 72.6148 70.0874 72.8337 70.0874 73.0525Z" fill="black"/>
<path d="M86.2864 76.2332C85.1814 76.2332 84.2194 75.9732 83.4004 75.4532C82.5792 74.9332 81.9379 74.2095 81.4764 73.2778C81.0127 72.3483 80.783 71.2715 80.783 70.0452C80.783 68.561 81.1059 67.2177 81.7537 66.0152C82.4059 64.8148 83.2747 63.9438 84.3624 63.4065C84.8174 63.1465 85.2724 63.0078 85.723 62.9905C86.178 62.9688 86.7284 62.9775 87.3697 63.0165C89.2287 63.0923 90.624 63.7575 91.5557 65.0098C92.4917 66.2643 92.847 67.9435 92.6217 70.0452C92.522 71.1502 92.2707 72.1577 91.8677 73.0698C91.469 73.9777 90.832 74.7143 89.961 75.2798C89.0944 75.8388 87.868 76.1573 86.2864 76.2332ZM86.373 74.3698C87.8745 74.3135 88.9254 73.8802 89.5277 73.0698C90.1279 72.2552 90.429 70.9768 90.429 69.2305C90.429 67.7918 90.1214 66.6977 89.5104 65.9458C88.9037 65.1962 88.0284 64.8192 86.8844 64.8192C86.0394 64.8192 85.333 65.0857 84.761 65.6165C84.1934 66.143 83.7644 66.8125 83.4697 67.6272C83.1794 68.4375 83.0364 69.2717 83.0364 70.1318C83.0364 71.4145 83.3245 72.4437 83.903 73.2172C84.4859 73.9863 85.3092 74.3698 86.373 74.3698Z" fill="black"/>
<path d="M114.561 75.6351C114.024 75.6351 113.673 75.3556 113.513 74.7945C113.391 74.4131 113.29 74.0383 113.209 73.6678C113.127 73.2995 113.038 72.9225 112.941 72.5411L112.819 72.0905C112.778 71.889 112.668 71.8088 112.49 71.8478C111.766 71.9691 111.045 72.071 110.323 72.1511C109.606 72.2335 108.876 72.2616 108.131 72.2378C107.968 72.2378 107.849 72.3115 107.775 72.4545C107.572 72.8943 107.385 73.3038 107.212 73.6851C107.043 74.0665 106.891 74.3958 106.753 74.6731C106.493 75.2343 106.079 75.5138 105.513 75.5138C104.952 75.5138 104.681 75.3101 104.699 74.8985C104.72 74.489 104.874 73.9343 105.158 73.2345C105.921 71.4491 106.636 69.8523 107.307 68.4418C107.977 67.027 108.471 66.0195 108.789 65.4171C109.695 63.7531 110.499 62.9211 111.199 62.9211C111.539 62.9211 111.849 63.0576 112.126 63.3285C112.408 63.6015 112.655 63.933 112.863 64.3251C113.075 64.713 113.264 65.1051 113.426 65.5038C113.703 66.3315 113.966 67.2696 114.215 68.3205C114.468 69.3735 114.704 70.381 114.925 71.3451C115.144 72.305 115.335 73.0655 115.497 73.6245C115.536 73.8216 115.571 74.0015 115.601 74.1618C115.63 74.3243 115.645 74.4868 115.645 74.6471C115.645 75.3058 115.283 75.6351 114.561 75.6351ZM108.703 70.0191C108.603 70.2575 108.685 70.3745 108.945 70.3745C109.483 70.3571 110.016 70.3138 110.549 70.2445C111.08 70.1708 111.617 70.095 112.161 70.0191C112.362 69.9801 112.442 69.8588 112.403 69.6551C112.258 69.0138 112.096 68.3378 111.918 67.6271C111.738 66.9165 111.506 66.2405 111.225 65.5991C111.166 65.4778 111.077 65.4431 110.956 65.4951C110.835 65.5428 110.724 65.6663 110.627 65.8678C110.187 66.7301 109.812 67.5058 109.5 68.1991C109.188 68.8881 108.922 69.4948 108.703 70.0191Z" fill="black"/>
<path d="M121.026 76.2071C120.766 76.1898 120.541 76.1053 120.35 75.9558C120.16 75.8041 120.043 75.6308 120.004 75.4271C119.986 75.2083 119.952 74.7901 119.9 74.1704C119.848 73.5464 119.8 72.8401 119.761 72.0471C119.72 71.2563 119.679 70.4763 119.64 69.7071C119.598 68.9336 119.564 68.2576 119.536 67.6791C119.505 67.0963 119.492 66.7128 119.492 66.5265V64.6025C119.492 63.9611 119.52 63.4281 119.579 62.9991C119.642 62.5658 119.893 62.3101 120.333 62.2278C120.673 62.1888 120.924 62.2191 121.087 62.3231C121.247 62.4228 121.377 62.5528 121.477 62.7131C121.557 62.8345 121.678 62.8951 121.841 62.8951C122.14 62.8561 122.45 62.8301 122.768 62.8171C123.091 62.8063 123.384 62.7998 123.644 62.7998C125.186 62.8821 126.436 63.335 127.396 64.1605C128.36 64.9816 128.844 66.0021 128.844 67.2198C128.844 68.0648 128.566 68.847 128.012 69.5684C127.461 70.2856 126.696 70.8944 125.715 71.3971C124.731 71.8998 123.592 72.2616 122.292 72.4804C122.088 72.4978 121.997 72.5996 122.014 72.7838C122.036 73.0611 122.062 73.4164 122.092 73.8498C122.12 74.2788 122.155 74.6623 122.196 75.0024C122.196 75.1476 122.188 75.2494 122.17 75.3058C122.146 75.3881 122.129 75.4488 122.118 75.4878C122.112 75.5289 122.097 75.5788 122.075 75.6351C121.993 75.8128 121.852 75.9579 121.65 76.0684C121.453 76.1768 121.245 76.2244 121.026 76.2071ZM121.841 70.4091C121.858 70.6063 121.975 70.6843 122.196 70.6431C122.976 70.4871 123.713 70.2596 124.406 69.9584C125.1 69.6594 125.659 69.2781 126.088 68.8145C126.521 68.353 126.738 67.8221 126.738 67.2198C126.738 66.4398 126.404 65.7985 125.741 65.2958C125.082 64.7931 124.233 64.5418 123.193 64.5418C122.989 64.5418 122.779 64.5548 122.56 64.5765C122.339 64.5938 122.118 64.6241 121.893 64.6631C121.754 64.687 121.663 64.7888 121.624 64.9665C121.607 65.4301 121.598 66.0151 121.598 66.7258C121.598 67.4365 121.62 68.1341 121.668 68.8145C121.72 69.497 121.776 70.0278 121.841 70.4091Z" fill="black"/>
<path d="M134.4 76.2071C134.14 76.1898 133.915 76.1053 133.724 75.9558C133.534 75.8041 133.417 75.6308 133.378 75.4271C133.36 75.2083 133.326 74.7901 133.274 74.1704C133.222 73.5464 133.174 72.8401 133.135 72.0471C133.094 71.2563 133.053 70.4763 133.014 69.7071C132.972 68.9336 132.938 68.2576 132.91 67.6791C132.879 67.0963 132.866 66.7128 132.866 66.5265V64.6025C132.866 63.9611 132.894 63.4281 132.953 62.9991C133.016 62.5658 133.267 62.3101 133.707 62.2278C134.047 62.1888 134.298 62.2191 134.461 62.3231C134.621 62.4228 134.751 62.5528 134.851 62.7131C134.931 62.8345 135.052 62.8951 135.215 62.8951C135.514 62.8561 135.824 62.8301 136.142 62.8171C136.465 62.8063 136.758 62.7998 137.018 62.7998C138.56 62.8821 139.81 63.335 140.77 64.1605C141.734 64.9816 142.218 66.0021 142.218 67.2198C142.218 68.0648 141.94 68.847 141.386 69.5684C140.835 70.2856 140.07 70.8944 139.089 71.3971C138.105 71.8998 136.966 72.2616 135.666 72.4804C135.462 72.4978 135.371 72.5996 135.388 72.7838C135.41 73.0611 135.436 73.4164 135.466 73.8498C135.494 74.2788 135.529 74.6623 135.57 75.0024C135.57 75.1476 135.562 75.2494 135.544 75.3058C135.52 75.3881 135.503 75.4488 135.492 75.4878C135.486 75.5289 135.471 75.5788 135.449 75.6351C135.367 75.8128 135.226 75.9579 135.024 76.0684C134.827 76.1768 134.619 76.2244 134.4 76.2071ZM135.215 70.4091C135.232 70.6063 135.349 70.6843 135.57 70.6431C136.35 70.4871 137.087 70.2596 137.78 69.9584C138.474 69.6594 139.033 69.2781 139.462 68.8145C139.895 68.353 140.112 67.8221 140.112 67.2198C140.112 66.4398 139.778 65.7985 139.115 65.2958C138.456 64.7931 137.607 64.5418 136.567 64.5418C136.363 64.5418 136.153 64.5548 135.934 64.5765C135.713 64.5938 135.492 64.6241 135.267 64.6631C135.128 64.687 135.037 64.7888 134.998 64.9665C134.981 65.4301 134.972 66.0151 134.972 66.7258C134.972 67.4365 134.994 68.1341 135.042 68.8145C135.094 69.497 135.15 70.0278 135.215 70.4091Z" fill="black"/>
<path d="M132.18 38.0379C134.039 42.6919 135.274 48.9926 133.672 55.0506H144.356C144.558 52.3552 144.662 47.9981 143.864 43.4416C142.66 36.5472 139.741 30.2162 135.781 24.5006C134.6 22.8019 133.365 21.2051 133.243 19.0536C133.079 16.2087 134.301 12.6251 137.256 11.7822C138.504 11.4269 140.097 11.3424 141.286 11.8321C143.043 12.5536 144.848 13.7214 146.809 13.0454C148.566 12.4409 150.206 10.8116 150.464 8.92656C150.774 6.64939 149.628 4.43289 147.97 2.99639C146.883 2.05389 145.574 1.32373 144.313 0.85356C140.038 -0.738941 135.291 0.0215598 131.419 2.10373C124.822 5.65273 121.379 13.2946 122.85 19.9614C124.323 26.6304 130.16 32.9809 132.18 38.0379Z" fill="white"/>
<path d="M109.332 16.8067C107.989 17.149 106.7 18.0438 105.588 18.956C102.953 21.1183 100.457 23.597 97.8228 25.7615C97.1555 26.3097 96.473 26.8665 95.68 27.1438C94.055 27.7137 92.3325 27.0095 90.662 26.6672C89.0846 26.3422 85.5465 26.2447 84.6495 26.2252C83.7481 26.2447 80.2121 26.3422 78.6348 26.6672C76.9643 27.0095 75.2396 27.7137 73.6146 27.1438C72.826 26.8665 72.1413 26.3097 71.474 25.7615C68.8393 23.597 66.3433 21.1183 63.7086 18.956C62.5971 18.0438 61.3058 17.149 59.9625 16.8067C54.5501 15.4308 55.2911 24.0867 56.1015 27.4775C56.7948 30.3787 58.5216 33.217 58.7751 36.2005C58.8336 36.896 55.536 43.8705 57.4101 54.8447C57.434 54.979 70.9301 55.0483 84.6495 55.0505C98.3645 55.0483 111.863 54.979 111.884 54.8447C113.759 43.8705 110.461 36.896 110.519 36.2005C110.773 33.217 112.502 30.3787 113.195 27.4775C114.006 24.0867 114.744 15.4308 109.332 16.8067Z" fill="white"/>
<path d="M98.709 51.7074C101.692 50.1041 102.44 45.6927 102.44 45.6927C102.44 45.6927 98.3493 43.8771 95.3636 45.4782C92.3801 47.0816 91.6326 51.4951 91.6326 51.4951C91.6326 51.4951 95.7233 53.3107 98.709 51.7074Z" fill="#61B95E"/>
<path d="M98.4512 48.6328C98.4035 50.481 96.8738 51.9413 96.8738 51.9413C96.8738 51.9413 95.4243 50.403 95.4742 48.5526C95.5218 46.7045 97.0515 45.2441 97.0515 45.2441C97.0515 45.2441 98.501 46.7825 98.4512 48.6328Z" fill="black"/>
<path d="M70.5878 51.7074C67.6021 50.1041 66.8546 45.6927 66.8546 45.6927C66.8546 45.6927 70.9474 43.8771 73.9309 45.4782C76.9166 47.0816 77.6641 51.4951 77.6641 51.4951C77.6641 51.4951 73.5713 53.3107 70.5878 51.7074Z" fill="#61B95E"/>
<path d="M70.824 48.6329C70.8738 50.507 72.423 51.9869 72.423 51.9869C72.423 51.9869 73.892 50.4269 73.8422 48.5527C73.7923 46.6785 72.2432 45.1965 72.2432 45.1965C72.2432 45.1965 70.7742 46.7565 70.824 48.6329Z" fill="black"/>
<mask id="mask3_108_249" style="mask-type:luminance" maskUnits="userSpaceOnUse" x="36" y="50" width="22" height="15">
<path d="M36.1963 50.2644H57.6853V64.1311H36.1963V50.2644Z" fill="white"/>
</mask>
<g mask="url(#mask3_108_249)">
<path d="M55.2521 54.4699C54.47 52.3098 51.064 50.5591 46.9018 50.3576C42.3648 50.1366 38.5428 51.8331 37.986 54.2143C37.089 55.0484 36.4866 56.2856 36.4195 57.6918C36.2895 60.3394 38.0856 62.5754 40.43 62.6903C41.4461 62.7401 42.3951 62.3804 43.16 61.7456C43.8511 63.1063 45.1208 64.0488 46.6201 64.1203C48.0653 64.1896 49.3783 63.4356 50.2038 62.2288C50.8798 62.8463 51.7291 63.2384 52.6673 63.2818C55.0138 63.3966 57.018 61.3426 57.1458 58.6971C57.2325 56.9378 56.4633 55.3648 55.2521 54.4699Z" fill="white"/>
</g>
<path d="M114.042 54.4698C114.827 52.3096 118.231 50.559 122.395 50.3575C126.932 50.1365 130.752 51.833 131.311 54.2141C132.208 55.0483 132.81 56.2855 132.879 57.6916C133.007 60.3393 131.209 62.5753 128.865 62.6901C127.851 62.74 126.899 62.3803 126.137 61.7455C125.446 63.1061 124.174 64.0486 122.677 64.1201C121.231 64.1895 119.918 63.4355 119.091 62.2286C118.415 62.8461 117.568 63.2383 116.627 63.2816C114.283 63.3965 112.279 61.3425 112.149 58.697C112.064 56.9376 112.831 55.3646 114.042 54.4698Z" fill="white"/>
</svg>
